<svg width="259" height="182" viewBox="0 0 259 182" fill="none" xmlns="http://www.w3.org/2000/svg">
<g clip-path="url(#clip0_84_2891)">
<g clip-path="url(#clip1_84_2891)">
<path d="M54.7253 176.47H0.0435791V177.808H54.7253V176.47Z" fill="#796D64"/>
<path d="M65.4048 179.385C65.2524 179.766 65.0564 180.081 64.8169 180.342C64.5774 180.603 64.2944 180.799 63.9678 180.93C63.6412 181.06 63.3146 181.125 62.9554 181.125C62.509 181.125 62.1389 181.038 61.8559 180.864C61.5728 180.69 61.3224 180.484 61.1265 180.255V182.768H59.4609V175.154H61.1265V175.992C61.3333 175.72 61.5728 175.491 61.8667 175.306C62.1498 175.132 62.5199 175.045 62.9554 175.045C63.3037 175.045 63.6303 175.111 63.9569 175.241C64.2835 175.372 64.5665 175.567 64.806 175.828C65.0455 176.089 65.2524 176.405 65.4048 176.775C65.5572 177.155 65.6334 177.58 65.6334 178.069V178.091C65.6334 178.58 65.5572 179.015 65.4048 179.385ZM63.9678 178.069C63.9678 177.83 63.9243 177.601 63.848 177.406C63.7718 177.199 63.663 177.036 63.5323 176.883C63.4017 176.731 63.2493 176.633 63.0751 176.557C62.9009 176.481 62.7159 176.438 62.5199 176.438C62.324 176.438 62.1389 176.481 61.9647 176.557C61.7905 176.633 61.6381 176.742 61.5184 176.883C61.3877 177.025 61.2898 177.199 61.2136 177.406C61.1374 177.601 61.0938 177.83 61.0938 178.069V178.091C61.0938 178.33 61.1374 178.559 61.2136 178.754C61.2898 178.95 61.3877 179.124 61.5184 179.276C61.649 179.418 61.7905 179.527 61.9647 179.603C62.1389 179.679 62.324 179.722 62.5199 179.722C62.7159 179.722 62.9009 179.679 63.0751 179.603C63.2493 179.527 63.4017 179.418 63.5323 179.276C63.663 179.135 63.7718 178.961 63.848 178.765C63.9243 178.569 63.9678 178.341 63.9678 178.091V178.069Z" fill="#7A6D64"/>
<path d="M72.2631 181.017V180.386C72.0563 180.614 71.8168 180.799 71.5337 180.93C71.2507 181.06 70.9023 181.136 70.4887 181.136C70.2056 181.136 69.9552 181.093 69.7048 181.017C69.4545 180.941 69.2476 180.821 69.0626 180.669C68.8775 180.516 68.736 180.332 68.6271 180.103C68.5182 179.875 68.4638 179.625 68.4638 179.331V179.309C68.4638 178.994 68.5182 178.711 68.638 178.482C68.7577 178.243 68.921 178.058 69.1279 177.906C69.3347 177.754 69.5851 177.634 69.8681 177.558C70.1512 177.482 70.4778 177.449 70.8261 177.449C71.1201 177.449 71.3813 177.471 71.6099 177.514C71.8277 177.558 72.0454 177.612 72.2631 177.688V177.591C72.2631 177.242 72.1543 176.971 71.9474 176.797C71.7406 176.612 71.4249 176.525 71.0112 176.525C70.6846 176.525 70.4124 176.546 70.1621 176.612C69.9226 176.666 69.6613 176.742 69.3891 176.851L68.9755 175.578C69.3021 175.437 69.6286 175.328 69.9879 175.241C70.3362 175.154 70.7608 175.111 71.2616 175.111C72.176 175.111 72.8401 175.339 73.2538 175.774C73.6674 176.22 73.8743 176.84 73.8743 177.634V181.039H72.2631V181.017ZM72.2958 178.656C72.1543 178.591 71.991 178.537 71.8059 178.493C71.6317 178.45 71.4358 178.439 71.2289 178.439C70.8697 178.439 70.5866 178.504 70.3907 178.646C70.1838 178.787 70.0859 178.983 70.0859 179.244V179.266C70.0859 179.494 70.173 179.668 70.3362 179.788C70.4995 179.907 70.7282 179.973 70.9894 179.973C71.3813 179.973 71.697 179.875 71.9365 179.69C72.176 179.505 72.2958 179.255 72.2958 178.95V178.656Z" fill="#7A6D64"/>
<path d="M80.7326 176.775C80.1774 176.775 79.742 176.938 79.4263 177.275C79.1106 177.612 78.9473 178.134 78.9473 178.841V181.006H77.2817V175.143H78.9473V176.329C79.1106 175.926 79.3501 175.611 79.6331 175.361C79.9162 175.111 80.3189 175.013 80.8197 175.034V176.775H80.7326Z" fill="#7A6D64"/>
<path d="M95.3747 180.342C95.1679 180.506 94.9284 180.658 94.678 180.777C94.4276 180.897 94.1554 180.984 93.8506 181.049C93.5567 181.115 93.2192 181.136 92.8491 181.136C92.283 181.136 91.7604 181.038 91.2814 180.832C90.8025 180.625 90.3888 180.353 90.0295 179.994C89.6812 179.635 89.409 179.222 89.2131 178.743C89.0171 178.265 88.9191 177.754 88.9191 177.199V177.177C88.9191 176.633 89.0171 176.122 89.2131 175.644C89.409 175.165 89.6812 174.741 90.0295 174.382C90.3779 174.023 90.8025 173.74 91.2923 173.533C91.7822 173.327 92.3265 173.218 92.9144 173.218C93.2736 173.218 93.6002 173.251 93.8942 173.305C94.1881 173.359 94.4602 173.446 94.6997 173.544C94.9392 173.642 95.1678 173.773 95.3638 173.914C95.5706 174.056 95.7557 174.219 95.9299 174.393L94.8521 175.633C94.5582 175.361 94.2534 175.154 93.9377 175.002C93.622 174.85 93.2845 174.773 92.8926 174.773C92.566 174.773 92.2721 174.839 91.9999 174.958C91.7278 175.078 91.4883 175.252 91.2923 175.47C91.0964 175.687 90.944 175.937 90.8351 176.231C90.7263 176.514 90.6718 176.829 90.6718 177.155V177.177C90.6718 177.504 90.7263 177.819 90.8351 178.102C90.944 178.395 91.0964 178.646 91.2923 178.863C91.4883 179.081 91.7169 179.255 91.9891 179.385C92.2612 179.516 92.566 179.581 92.8926 179.581C93.3281 179.581 93.6982 179.505 94.003 179.342C94.3078 179.179 94.6018 178.961 94.9066 178.689L95.9843 179.777C95.7884 179.994 95.5815 180.179 95.3747 180.342Z" fill="#7A6D64"/>
<path d="M104.106 181.017V177.939H100.992V181.017H99.3047V173.359H100.992V176.394H104.106V173.359H105.793V181.017H104.106Z" fill="#7A6D64"/>
<path d="M109.603 181.017V173.359H115.373V174.86H111.269V176.416H114.883V177.917H111.269V179.527H115.427V181.028H109.603V181.017Z" fill="#7A6D64"/>
<path d="M118.682 181.017V179.733L122.895 174.828H118.813V173.349H125.062V174.632L120.849 179.537H125.062V181.017H118.682Z" fill="#7A6D64"/>
<path d="M139.714 177.199C139.551 177.536 139.333 177.819 139.05 178.036C138.767 178.265 138.441 178.428 138.06 178.548C137.679 178.656 137.276 178.722 136.851 178.722H135.567V181.017H133.879V173.359H137.015C137.472 173.359 137.886 173.425 138.245 173.555C138.604 173.686 138.909 173.86 139.17 174.099C139.421 174.327 139.617 174.61 139.747 174.937C139.878 175.263 139.954 175.622 139.954 176.013V176.035C139.954 176.481 139.878 176.873 139.714 177.21V177.199ZM138.245 176.035C138.245 175.654 138.125 175.372 137.875 175.176C137.624 174.98 137.298 174.882 136.873 174.882H135.567V177.221H136.906C137.33 177.221 137.657 177.112 137.896 176.883C138.125 176.666 138.245 176.383 138.245 176.057V176.035Z" fill="#7A6D64"/>
<path d="M147.966 181.017V177.939H144.853V181.017H143.165V173.359H144.853V176.394H147.966V173.359H149.654V181.017H147.966Z" fill="#7A6D64"/>
<path d="M153.54 181.017V173.359H155.227V181.017H153.54Z" fill="#7A6D64"/>
<path d="M159.114 181.017V173.359H160.801V179.494H164.622V181.017H159.114Z" fill="#7A6D64"/>
<path d="M167.943 181.017V173.359H169.63V181.017H167.943Z" fill="#7A6D64"/>
<path d="M179.341 177.199C179.177 177.536 178.96 177.819 178.676 178.036C178.393 178.265 178.067 178.428 177.686 178.548C177.305 178.656 176.902 178.722 176.477 178.722H175.193V181.017H173.505V173.359H176.641C177.098 173.359 177.512 173.425 177.871 173.555C178.23 173.686 178.535 173.86 178.796 174.099C179.047 174.327 179.243 174.61 179.373 174.937C179.504 175.263 179.58 175.622 179.58 176.013V176.035C179.58 176.481 179.504 176.873 179.341 177.21V177.199ZM177.871 176.035C177.871 175.654 177.751 175.372 177.501 175.176C177.25 174.98 176.924 174.882 176.499 174.882H175.193V177.221H176.532C176.956 177.221 177.283 177.112 177.523 176.883C177.751 176.666 177.871 176.383 177.871 176.057V176.035Z" fill="#7A6D64"/>
<path d="M188.627 177.199C188.463 177.536 188.246 177.819 187.962 178.036C187.679 178.265 187.353 178.428 186.972 178.548C186.591 178.656 186.188 178.722 185.763 178.722H184.479V181.017H182.792V173.359H185.927C186.384 173.359 186.798 173.425 187.157 173.555C187.516 173.686 187.821 173.86 188.082 174.099C188.333 174.327 188.529 174.61 188.659 174.937C188.79 175.263 188.866 175.622 188.866 176.013V176.035C188.866 176.481 188.79 176.873 188.627 177.21V177.199ZM187.157 176.035C187.157 175.654 187.037 175.372 186.787 175.176C186.536 174.98 186.21 174.882 185.785 174.882H184.479V177.221H185.818C186.242 177.221 186.569 177.112 186.809 176.883C187.037 176.666 187.157 176.383 187.157 176.057V176.035Z" fill="#7A6D64"/>
<path d="M192.078 181.017V173.359H197.847V174.86H193.743V176.416H197.357V177.917H193.743V179.527H197.902V181.028H192.078V181.017Z" fill="#7A6D64"/>
<path d="M257.983 176.47H203.301V177.808H257.983V176.47Z" fill="#796D64"/>
</g>
<g clip-path="url(#clip2_84_2891)">
<path d="M0 141.682H3.45095V158.313H13.8473V161.446H0V141.682Z" fill="#B60032"/>
<path d="M32.1254 144.826H20.9343V149.905H30.8517V153.038H20.9343V158.313H32.2669V161.446H17.4943V141.682H32.1254V144.815V144.826Z" fill="#B60032"/>
<path d="M60.5059 159.229C59.9507 159.653 59.352 160.023 58.7097 160.327C58.0674 160.643 57.3707 160.871 56.6086 161.034C55.8466 161.197 55.0084 161.273 54.083 161.273C52.6352 161.273 51.2961 161.012 50.066 160.479C48.8358 159.946 47.7799 159.229 46.8872 158.315C45.9945 157.401 45.2869 156.324 44.7861 155.085C44.2745 153.845 44.0241 152.507 44.0241 151.082C44.0241 149.657 44.2745 148.341 44.7753 147.101C45.276 145.861 45.9728 144.773 46.8763 143.838C47.7799 142.902 48.8576 142.174 50.0987 141.641C51.3397 141.108 52.7114 140.836 54.2246 140.836C55.1281 140.836 55.9555 140.912 56.6957 141.064C57.436 141.216 58.1218 141.423 58.7424 141.695C59.3629 141.967 59.9398 142.293 60.4624 142.674C60.9849 143.055 61.4857 143.468 61.9647 143.914L59.733 146.481C58.9383 145.752 58.1001 145.154 57.2183 144.708C56.3365 144.251 55.3241 144.034 54.1919 144.034C53.2557 144.034 52.3848 144.219 51.5792 144.588C50.7736 144.958 50.0878 145.448 49.4999 146.089C48.912 146.72 48.4657 147.46 48.1391 148.308C47.8234 149.157 47.6601 150.07 47.6601 151.049C47.6601 152.028 47.8234 152.942 48.1391 153.801C48.4548 154.66 48.912 155.4 49.4999 156.042C50.0878 156.683 50.7736 157.184 51.5792 157.554C52.3739 157.923 53.2448 158.108 54.1919 158.108C55.4003 158.108 56.4345 157.88 57.3054 157.412C58.1763 156.955 59.0254 156.324 59.8745 155.541L62.1062 157.804C61.5946 158.348 61.0611 158.837 60.5059 159.261V159.229Z" fill="#B60032"/>
<path d="M84.2271 154.976C83.7155 156.216 82.997 157.303 82.0825 158.239C81.1681 159.174 80.0685 159.914 78.8057 160.458C77.5429 161.002 76.1495 161.273 74.6254 161.273C73.1013 161.273 71.7079 161.002 70.4451 160.469C69.1823 159.936 68.1045 159.207 67.201 158.282C66.2974 157.358 65.5898 156.281 65.0781 155.03C64.5665 153.779 64.3161 152.474 64.3161 151.082C64.3161 149.69 64.5665 148.373 65.0781 147.134C65.5898 145.894 66.3083 144.806 67.2227 143.87C68.1372 142.935 69.2367 142.195 70.4995 141.652C71.7623 141.108 73.1558 140.836 74.6798 140.836C76.2039 140.836 77.5974 141.108 78.8602 141.641C80.123 142.174 81.2007 142.902 82.1152 143.827C83.0296 144.751 83.7263 145.828 84.238 147.079C84.7496 148.319 85 149.635 85 151.027C85 152.42 84.7496 153.736 84.238 154.976H84.2271ZM80.8524 148.352C80.5258 147.492 80.0577 146.753 79.4698 146.111C78.8819 145.469 78.1634 144.958 77.3361 144.588C76.5087 144.208 75.6052 144.023 74.6254 144.023C73.6456 144.023 72.753 144.208 71.9256 144.577C71.1091 144.947 70.4015 145.437 69.8246 146.078C69.2367 146.709 68.7795 147.449 68.4529 148.308C68.1263 149.167 67.963 150.07 67.963 151.027C67.963 151.985 68.1263 152.898 68.4529 153.758C68.7795 154.617 69.2476 155.356 69.8354 155.998C70.4233 156.64 71.1418 157.151 71.9692 157.521C72.7965 157.902 73.7001 158.087 74.6798 158.087C75.6596 158.087 76.5523 157.902 77.3796 157.532C78.1961 157.162 78.9037 156.673 79.4807 156.031C80.0685 155.4 80.5258 154.66 80.8524 153.801C81.1789 152.942 81.3422 152.039 81.3422 151.082C81.3422 150.125 81.1789 149.211 80.8524 148.352Z" fill="#B60032"/>
<path d="M92.1632 147.497C92.2938 147.78 92.5333 148.041 92.8816 148.291C93.23 148.531 93.709 148.759 94.3295 148.966C94.9392 149.173 95.723 149.39 96.6701 149.618C97.7043 149.88 98.6296 150.173 99.4352 150.489C100.241 150.804 100.905 151.196 101.427 151.663C101.961 152.12 102.353 152.664 102.636 153.273C102.908 153.882 103.049 154.6 103.049 155.438C103.049 156.384 102.875 157.221 102.527 157.95C102.179 158.679 101.7 159.31 101.079 159.81C100.458 160.321 99.7182 160.702 98.8582 160.974C97.9982 161.235 97.0402 161.365 96.006 161.365C94.4819 161.365 93.0232 161.104 91.6297 160.593C90.2363 160.071 88.9408 159.277 87.7542 158.211L89.8444 155.731C90.8024 156.558 91.7712 157.2 92.751 157.635C93.7308 158.07 94.8412 158.298 96.0822 158.298C97.16 158.298 98.0091 158.07 98.6405 157.624C99.2719 157.178 99.5876 156.558 99.5876 155.786C99.5876 155.427 99.5223 155.111 99.4025 154.828C99.2828 154.546 99.0542 154.285 98.7167 154.056C98.3901 153.817 97.9329 153.599 97.3559 153.393C96.7789 153.186 96.0278 152.969 95.1024 152.74C94.0465 152.501 93.1103 152.218 92.2829 151.924C91.4664 151.62 90.7697 151.25 90.2145 150.793C89.6593 150.347 89.2347 149.792 88.9408 149.151C88.6469 148.509 88.5054 147.726 88.5054 146.812C88.5054 145.953 88.6687 145.159 89.0061 144.452C89.3436 143.745 89.8008 143.136 90.3887 142.636C90.9765 142.124 91.6842 141.733 92.5115 141.461C93.3389 141.189 94.2424 141.047 95.2222 141.047C96.6701 141.047 97.9764 141.265 99.1304 141.678C100.295 142.103 101.373 142.723 102.396 143.527L100.535 146.149C99.6311 145.485 98.7385 144.985 97.8567 144.637C96.9749 144.289 96.0713 144.115 95.1678 144.115C94.1553 144.115 93.3606 144.343 92.7946 144.811C92.2285 145.268 91.9454 145.833 91.9454 146.486C91.9454 146.877 92.0107 147.215 92.1414 147.497H92.1632Z" fill="#B60032"/>
<path d="M116.886 156.584H116.777L110.594 147.328V161.446H107.143V141.682H110.844L116.864 151.026L122.884 141.682H126.586V161.446H123.135V147.273L116.886 156.595V156.584Z" fill="#B60032"/>
<path d="M150.71 154.976C150.198 156.216 149.479 157.303 148.565 158.239C147.651 159.174 146.551 159.914 145.288 160.458C144.025 161.002 142.632 161.273 141.108 161.273C139.584 161.273 138.19 161.002 136.928 160.469C135.665 159.936 134.587 159.207 133.683 158.282C132.78 157.358 132.072 156.281 131.561 155.03C131.049 153.779 130.799 152.474 130.799 151.082C130.799 149.69 131.049 148.373 131.561 147.134C132.072 145.894 132.791 144.806 133.705 143.87C134.62 142.935 135.719 142.195 136.982 141.652C138.245 141.108 139.638 140.836 141.162 140.836C142.686 140.836 144.08 141.108 145.343 141.641C146.605 142.174 147.683 142.902 148.598 143.827C149.512 144.751 150.209 145.828 150.72 147.079C151.232 148.319 151.483 149.635 151.483 151.027C151.483 152.42 151.232 153.736 150.72 154.976H150.71ZM147.335 148.352C147.008 147.492 146.54 146.753 145.952 146.111C145.364 145.469 144.646 144.958 143.819 144.588C142.991 144.208 142.088 144.023 141.108 144.023C140.128 144.023 139.235 144.208 138.408 144.577C137.592 144.947 136.884 145.437 136.307 146.078C135.719 146.709 135.262 147.449 134.935 148.308C134.609 149.167 134.445 150.07 134.445 151.027C134.445 151.985 134.609 152.898 134.935 153.758C135.262 154.617 135.73 155.356 136.318 155.998C136.906 156.64 137.624 157.151 138.452 157.521C139.279 157.902 140.183 158.087 141.162 158.087C142.142 158.087 143.035 157.902 143.862 157.532C144.679 157.162 145.386 156.673 145.963 156.031C146.551 155.4 147.008 154.66 147.335 153.801C147.661 152.942 147.825 152.039 147.825 151.082C147.825 150.125 147.661 149.211 147.335 148.352Z" fill="#B60032"/>
<path d="M170.37 151.254C169.957 152.103 169.39 152.81 168.672 153.375C167.953 153.941 167.115 154.365 166.146 154.659C165.177 154.952 164.154 155.094 163.055 155.094H159.114V161.446H155.663V141.682H163.457C164.611 141.682 165.646 141.835 166.582 142.15C167.518 142.455 168.302 142.912 168.955 143.488C169.608 144.075 170.109 144.772 170.457 145.576C170.806 146.381 170.98 147.295 170.98 148.317C170.98 149.427 170.773 150.406 170.359 151.254H170.37ZM166.299 145.718C165.526 145.12 164.481 144.826 163.174 144.826H159.125V151.972H163.174C164.492 151.972 165.548 151.646 166.31 150.993C167.072 150.34 167.464 149.481 167.464 148.404C167.464 147.219 167.072 146.327 166.299 145.729V145.718Z" fill="#B60032"/>
<path d="M193.602 154.976C193.09 156.216 192.371 157.303 191.457 158.239C190.543 159.174 189.443 159.914 188.18 160.458C186.917 161.002 185.524 161.273 184 161.273C182.476 161.273 181.082 161.002 179.82 160.469C178.557 159.936 177.479 159.207 176.575 158.282C175.672 157.358 174.964 156.281 174.453 155.03C173.941 153.779 173.691 152.474 173.691 151.082C173.691 149.69 173.941 148.373 174.453 147.134C174.964 145.894 175.683 144.806 176.597 143.87C177.512 142.935 178.611 142.195 179.874 141.652C181.137 141.108 182.53 140.836 184.054 140.836C185.578 140.836 186.972 141.108 188.235 141.641C189.497 142.174 190.575 142.902 191.49 143.827C192.404 144.751 193.101 145.828 193.612 147.079C194.124 148.319 194.374 149.635 194.374 151.027C194.374 152.42 194.124 153.736 193.612 154.976H193.602ZM190.216 148.352C189.889 147.492 189.421 146.753 188.833 146.111C188.246 145.469 187.527 144.958 186.7 144.588C185.872 144.208 184.969 144.023 183.989 144.023C183.009 144.023 182.117 144.208 181.289 144.577C180.473 144.947 179.765 145.437 179.188 146.078C178.6 146.709 178.143 147.449 177.816 148.308C177.49 149.167 177.327 150.07 177.327 151.027C177.327 151.985 177.49 152.898 177.816 153.758C178.143 154.617 178.611 155.356 179.199 155.998C179.787 156.64 180.505 157.151 181.333 157.521C182.16 157.902 183.064 158.087 184.043 158.087C185.023 158.087 185.916 157.902 186.743 157.532C187.56 157.162 188.267 156.673 188.844 156.031C189.432 155.4 189.889 154.66 190.216 153.801C190.543 152.942 190.706 152.039 190.706 151.082C190.706 150.125 190.543 149.211 190.216 148.352Z" fill="#B60032"/>
<path d="M198.566 141.682H202.017V158.313H212.413V161.446H198.566V141.682Z" fill="#B60032"/>
<path d="M219.707 141.682V161.446H216.256V141.682H219.707Z" fill="#B60032"/>
<path d="M233.38 161.446H229.875V144.902H223.604V141.682H239.651V144.902H233.38V161.446Z" fill="#B60032"/>
<path d="M257.961 144.826H246.77V149.905H256.688V153.038H246.77V158.313H258.103V161.446H243.33V141.682H257.961V144.815V144.826Z" fill="#B60032"/>
</g>
<mask id="mask0_84_2891" style="mask-type:alpha" maskUnits="userSpaceOnUse" x="0" y="-1" width="259" height="131">
<rect y="-0.0201416" width="258.034" height="129.123" fill="url(#paint0_linear_84_2891)"/>
</mask>
<g mask="url(#mask0_84_2891)">
<path d="M257.957 127.738H0V128.996H257.957V127.738Z" fill="#796D64"/>
<path d="M7.2664 112.255H6.1485V127.486H7.2664V112.255Z" fill="#796D64"/>
<path d="M9.50218 112.255H8.38428V127.486H9.50218V112.255Z" fill="#796D64"/>
<path d="M11.738 112.255H10.6201V127.486H11.738V112.255Z" fill="#796D64"/>
<path d="M13.9738 112.255H12.8559V127.486H13.9738V112.255Z" fill="#796D64"/>
<path d="M16.2096 112.255H15.0917V127.486H16.2096V112.255Z" fill="#796D64"/>
<path d="M18.4454 112.255H17.3275V127.486H18.4454V112.255Z" fill="#796D64"/>
<path d="M20.6813 112.255H19.5634V127.486H20.6813V112.255Z" fill="#796D64"/>
<path d="M45.2751 112.814H44.1572V127.486H45.2751V112.814Z" fill="#796D64"/>
<path d="M47.511 112.814H46.3931V127.486H47.511V112.814Z" fill="#796D64"/>
<rect x="45.2751" y="112.814" width="1.11791" height="1.11791" fill="#796D64"/>
<path d="M22.917 102.892H21.7991V127.486H22.917V102.892Z" fill="#796D64"/>
<path d="M43.0394 102.892H41.9214V127.486H43.0394V102.892Z" fill="#796D64"/>
<path d="M22.9171 125.25V126.368H41.9214V125.25H22.9171Z" fill="#796D64"/>
<path d="M22.9171 123.015V124.132H41.9214V123.015H22.9171Z" fill="#796D64"/>
<path d="M22.9171 120.779V121.897H41.9214V120.779H22.9171Z" fill="#796D64"/>
<path d="M22.9171 118.543V119.661H41.9214V118.543H22.9171Z" fill="#796D64"/>
<path d="M22.9171 116.307V117.425H41.9214V116.307H22.9171Z" fill="#796D64"/>
<path d="M22.9171 114.071V115.189H41.9214V114.071H22.9171Z" fill="#796D64"/>
<path d="M22.9171 111.835V112.953H41.9214V111.835H22.9171Z" fill="#796D64"/>
<path d="M22.9171 109.6V110.718H41.9214V109.6H22.9171Z" fill="#796D64"/>
<path d="M22.9171 107.364V108.482H41.9214V107.364H22.9171Z" fill="#796D64"/>
<path d="M22.9171 105.128V106.246H41.9214V105.128H22.9171Z" fill="#796D64"/>
<path d="M22.9171 102.892V104.01H41.9214V102.892H22.9171Z" fill="#796D64"/>
<path d="M12.2969 110.019V111.137H20.5415V110.019H12.2969Z" fill="#796D64"/>
<path d="M12.2969 107.643V108.761H20.5415V107.643H12.2969Z" fill="#796D64"/>
<path d="M12.2969 105.268V106.386H20.5415V105.268H12.2969Z" fill="#796D64"/>
<path d="M12.2969 102.892V104.01H20.5415V102.892H12.2969Z" fill="#796D64"/>
<path d="M12.2969 100.517V101.635H28.6463V100.517H12.2969Z" fill="#796D64"/>
<path d="M12.2969 98.1411V99.259H28.6463V98.1411H12.2969Z" fill="#796D64"/>
<path d="M12.2969 95.7656V96.8835H28.6463V95.7656H12.2969Z" fill="#796D64"/>
<path d="M12.2969 93.39V94.5079H28.6463V93.39H12.2969Z" fill="#796D64"/>
<path d="M12.2969 91.0145V92.1324H28.6463V91.0145H12.2969Z" fill="#796D64"/>
<path d="M12.2969 88.6389V89.7568H28.6463V88.6389H12.2969Z" fill="#796D64"/>
<path d="M12.2969 86.2634V87.3813H28.6463V86.2634H12.2969Z" fill="#796D64"/>
<path d="M12.2969 83.8878V85.0057H28.6463V83.8878H12.2969Z" fill="#796D64"/>
<path d="M15.3712 79.1367V80.2546H36.1922V79.1367H15.3712Z" fill="#796D64"/>
<path d="M29.904 100.517V101.635H43.0394V100.517H29.904Z" fill="#796D64"/>
<path d="M29.904 98.1411V99.259H43.0394V98.1411H29.904Z" fill="#796D64"/>
<path d="M29.904 95.7656V96.8835H43.0394V95.7656H29.904Z" fill="#796D64"/>
<path d="M29.904 93.39V94.5079H43.0394V93.39H29.904Z" fill="#796D64"/>
<path d="M29.904 91.0145V92.1324H43.0394V91.0145H29.904Z" fill="#796D64"/>
<path d="M29.904 88.6389V89.7568H43.0394V88.6389H29.904Z" fill="#796D64"/>
<path d="M29.904 86.2634V87.3813H43.0394V86.2634H29.904Z" fill="#796D64"/>
<path d="M29.904 83.8878V85.0057H43.0394V83.8878H29.904Z" fill="#796D64"/>
<path d="M29.904 81.5123V82.6302H43.0394V81.5123H29.904Z" fill="#796D64"/>
<path d="M15.3712 81.5123V82.6302H28.6463V81.5123H15.3712Z" fill="#796D64"/>
<path d="M15.3712 76.7612V77.8792H28.6463V76.7612H15.3712Z" fill="#796D64"/>
<path d="M49.8865 76.1982H48.7686V127.063H49.8865V76.1982Z" fill="#796D64"/>
<path d="M52.9608 67.3948H51.8429V127.063H52.9608V67.3948Z" fill="#796D64"/>
<path d="M55.1966 67.3948H54.0787V127.063H55.1966V67.3948Z" fill="#796D64"/>
<path d="M57.4324 59.7091H56.3145V127.063H57.4324V59.7091Z" fill="#796D64"/>
<path d="M55.1966 59.7091H54.0787V64.3205H55.1966V59.7091Z" fill="#796D64"/>
<path d="M64.2796 59.7091H63.1617V64.3205H64.2796V59.7091Z" fill="#796D64"/>
<path d="M66.5154 59.7091H65.3975V64.3205H66.5154V59.7091Z" fill="#796D64"/>
<path d="M52.9608 59.7091H51.8429V64.3205H52.9608V59.7091Z" fill="#796D64"/>
<path d="M59.808 59.7091H58.6901V127.063H59.808V59.7091Z" fill="#796D64"/>
<path d="M62.0437 59.7091H60.9258V127.063H62.0437V59.7091Z" fill="#796D64"/>
<path d="M64.4193 67.3948H63.3014V127.063H64.4193V67.3948Z" fill="#796D64"/>
<path d="M66.6551 67.3948H65.5372V127.063H66.6551V67.3948Z" fill="#796D64"/>
<path d="M69.7294 76.1982H68.6115V127.063H69.7294V76.1982Z" fill="#796D64"/>
<path d="M72.3844 95.6218H71.2665V127.063H72.3844V95.6218Z" fill="#796D64"/>
<path d="M75.0394 98.4166H74.0613V127.063H75.0394V98.4166Z" fill="#796D64"/>
<path d="M77.5547 98.4166H76.5765V127.063H77.5547V98.4166Z" fill="#796D64"/>
<path d="M76.1573 87.0979H75.0394V94.0848H76.1573V87.0979Z" fill="#796D64"/>
<path d="M77.6945 96.7397L77.6945 95.6218L71.2665 95.6218L71.2665 96.7397L77.6945 96.7397Z" fill="#796D64"/>
<rect x="48.7686" y="76.1982" width="8.66377" height="1.25764" fill="#796D64"/>
<rect x="61.0656" y="76.1982" width="8.66377" height="1.25764" fill="#796D64"/>
<rect x="60.9258" y="65.0192" width="7.96508" height="1.25764" fill="#796D64"/>
<rect x="49.3276" y="65.0192" width="7.96508" height="1.25764" fill="#796D64"/>
<rect x="51.8429" y="59.7091" width="14.6725" height="1.25764" fill="#796D64"/>
<rect x="53.5197" y="57.1938" width="11.3188" height="1.25764" fill="#796D64"/>
<rect x="55.3363" y="55.0978" width="7.6856" height="1.25764" fill="#796D64"/>
<rect x="58.9695" y="45.4558" width="8.66377" height="1.25764" transform="rotate(90 58.9695 45.4558)" fill="#796D64"/>
<rect x="60.9258" y="45.4558" width="8.66377" height="1.25764" transform="rotate(90 60.9258 45.4558)" fill="#796D64"/>
<rect x="59.8079" y="29.5256" width="10.0612" height="0.978167" transform="rotate(90 59.8079 29.5256)" fill="#796D64"/>
<rect x="57.7119" y="43.2201" width="3.21398" height="1.25764" fill="#796D64"/>
<rect x="58.1311" y="40.8445" width="2.37555" height="1.25764" fill="#796D64"/>
<rect x="49.3276" y="65.0192" width="1.25764" height="11.1791" fill="#796D64"/>
<rect x="67.6333" y="65.0192" width="1.25764" height="11.1791" fill="#796D64"/>
<path d="M80.9084 127.698V46.6867C80.9084 46.6867 80.1051 45.7232 79.8604 46.2466C79.8164 46.3406 79.7905 46.4826 79.7905 46.6867V127.698H80.9084Z" fill="#796D64"/>
<path d="M82.5853 127.838H83.7032V48.3965L82.5853 47.6279V127.838Z" fill="#796D64"/>
<path d="M86.4979 51.2611L85.38 49.5842V127.698H86.4979V51.2611Z" fill="#796D64"/>
<path d="M89.2927 52.5188L88.1748 51.6804V127.698H89.2927V52.5188Z" fill="#796D64"/>
<path d="M92.0874 54.7546L90.9695 53.9161V127.698H92.0874V54.7546Z" fill="#796D64"/>
<path d="M94.8822 56.8506L93.7643 56.0122V127.698H94.8822V56.8506Z" fill="#796D64"/>
<path d="M97.677 59.366L96.5591 58.5276V127.698H97.677V59.366Z" fill="#796D64"/>
<path d="M97.677 58.1782L79.7206 45.5319V46.6498L97.677 59.4358V58.1782Z" fill="#796D64"/>
<path d="M101.45 105.619H100.332V127.698H101.45V105.619Z" fill="#796D64"/>
<path d="M110.533 103.663L110.533 102.545L100.332 102.545L100.332 103.663L110.533 103.663Z" fill="#796D64"/>
<path d="M110.533 89.4097L110.533 88.2917L100.332 88.2917L100.332 89.4097L110.533 89.4097Z" fill="#796D64"/>
<path d="M110.533 96.5364L110.533 95.4185L100.332 95.4185L100.332 96.5364L110.533 96.5364Z" fill="#796D64"/>
<path d="M110.533 82.2831L110.533 81.1652L100.332 81.1652L100.332 82.2831L110.533 82.2831Z" fill="#796D64"/>
<path d="M110.533 75.1564L110.533 74.0385L100.332 74.0385L100.332 75.1564L110.533 75.1564Z" fill="#796D64"/>
<path d="M110.533 101.287L110.533 100.17L100.332 100.17L100.332 101.287L110.533 101.287Z" fill="#796D64"/>
<path d="M110.533 87.0342L110.533 85.9163L100.332 85.9163L100.332 87.0342L110.533 87.0342Z" fill="#796D64"/>
<path d="M110.533 94.1608L110.533 93.0428L100.332 93.0428L100.332 94.1608L110.533 94.1608Z" fill="#796D64"/>
<path d="M110.533 79.9075L110.533 78.7896L100.332 78.7896L100.332 79.9075L110.533 79.9075Z" fill="#796D64"/>
<path d="M110.533 72.7809L110.533 71.663L100.332 71.663L100.332 72.7809L110.533 72.7809Z" fill="#796D64"/>
<path d="M110.533 98.9119L110.533 97.7939L100.332 97.7939L100.332 98.9119L110.533 98.9119Z" fill="#796D64"/>
<path d="M110.533 84.6586L110.533 83.5406L100.332 83.5406L100.332 84.6586L110.533 84.6586Z" fill="#796D64"/>
<path d="M110.533 91.7853L110.533 90.6674L100.332 90.6674L100.332 91.7853L110.533 91.7853Z" fill="#796D64"/>
<path d="M110.533 77.532L110.533 76.4141L100.332 76.4141L100.332 77.532L110.533 77.532Z" fill="#796D64"/>
<path d="M110.533 70.4053L110.533 69.2874L100.332 69.2874L100.332 70.4053L110.533 70.4053Z" fill="#796D64"/>
<path d="M108.716 68.0298L108.716 66.9119L101.45 66.9119L101.45 68.0298L108.716 68.0298Z" fill="#796D64"/>
<path d="M108.716 65.3747L108.716 64.2568L101.45 64.2568L101.45 65.3747L108.716 65.3747Z" fill="#796D64"/>
<path d="M105.363 57.8289H104.245V62.9992H105.363V57.8289Z" fill="#796D64"/>
<path d="M104.245 105.619H103.127V127.698H104.245V105.619Z" fill="#796D64"/>
<path d="M107.039 105.619H105.922V127.698H107.039V105.619Z" fill="#796D64"/>
<path d="M109.834 105.619H108.716V127.698H109.834V105.619Z" fill="#796D64"/>
<path d="M112.629 105.619H111.511V127.698H112.629V105.619Z" fill="#796D64"/>
<path d="M170.403 76.567H147.095V77.72H170.403V76.567Z" fill="#7A6D64"/>
<path d="M163.261 75.4685H162.108V63.9064C162.108 63.8303 162.314 60.4584 160.779 58.8269C160.235 58.2396 159.538 57.9568 158.657 57.9568C157.731 57.9568 157.002 58.2504 156.436 58.8595C154.89 60.5128 155.075 63.8412 155.075 63.8738V75.4794H153.921V63.9173C153.954 63.5692 153.703 60.0995 155.587 58.0873C156.381 57.2498 157.416 56.8147 158.657 56.8147C159.898 56.8147 160.856 57.228 161.629 58.0547C163.501 60.056 163.207 63.5475 163.272 63.9608V75.4903L163.261 75.4685Z" fill="#7A6D64"/>
<path d="M157.797 61.6223H156.643V75.4794H157.797V61.6223Z" fill="#7A6D64"/>
<path d="M160.529 61.6875H159.375V75.4685H160.529V61.6875Z" fill="#7A6D64"/>
<path d="M153.246 74.3264H151.363V75.4794H153.246V74.3264Z" fill="#7A6D64"/>
<path d="M153.246 72.0532H151.363V73.2062H153.246V72.0532Z" fill="#7A6D64"/>
<path d="M153.246 69.7908H151.363V70.9437H153.246V69.7908Z" fill="#7A6D64"/>
<path d="M153.246 67.5176H151.363V68.6705H153.246V67.5176Z" fill="#7A6D64"/>
<path d="M153.246 65.2551H151.363V66.4081H153.246V65.2551Z" fill="#7A6D64"/>
<path d="M153.246 62.9819H151.363V64.1349H153.246V62.9819Z" fill="#7A6D64"/>
<path d="M153.246 60.7195H151.363V61.8724H153.246V60.7195Z" fill="#7A6D64"/>
<path d="M152.015 58.1155L151.662 59.2131L153.455 59.789L153.808 58.6914L152.015 58.1155Z" fill="#7A6D64"/>
<path d="M153.451 55.7681L152.729 56.6672L154.198 57.845L154.92 56.9459L153.451 55.7681Z" fill="#7A6D64"/>
<path d="M156.182 54.1882L155.105 54.6022L155.781 56.3584L156.858 55.9445L156.182 54.1882Z" fill="#7A6D64"/>
<path d="M165.754 74.3264H163.871V75.4794H165.754V74.3264Z" fill="#7A6D64"/>
<path d="M165.754 72.0532H163.871V73.2062H165.754V72.0532Z" fill="#7A6D64"/>
<path d="M165.754 69.7908H163.871V70.9437H165.754V69.7908Z" fill="#7A6D64"/>
<path d="M165.754 67.5176H163.871V68.6705H165.754V67.5176Z" fill="#7A6D64"/>
<path d="M165.754 65.2551H163.871V66.4081H165.754V65.2551Z" fill="#7A6D64"/>
<path d="M165.754 62.9818H163.871V64.1348H165.754V62.9818Z" fill="#7A6D64"/>
<path d="M165.754 60.7195H163.871V61.8724H165.754V60.7195Z" fill="#7A6D64"/>
<path d="M165.085 58.1266L163.292 58.7015L163.644 59.7994L165.438 59.2244L165.085 58.1266Z" fill="#7A6D64"/>
<path d="M163.659 55.7662L162.191 56.9442L162.913 57.8433L164.382 56.6652L163.659 55.7662Z" fill="#7A6D64"/>
<path d="M160.933 54.1824L160.257 55.939L161.335 56.3523L162.01 54.5957L160.933 54.1824Z" fill="#7A6D64"/>
<path d="M159.168 53.9758H158.014V55.8575H159.168V53.9758Z" fill="#7A6D64"/>
<path d="M167.594 59.3817C167.594 59.3273 167.257 55.4986 164.448 53.1166V52.0072C164.448 51.9419 164.47 50.2886 163.218 48.9399C163.294 48.3525 163.425 46.5905 162.543 45.1439C162.565 44.9263 162.674 43.1425 161.748 41.7503C161.737 41.2282 161.607 39.1398 160.583 37.8455C160.627 37.5192 160.932 34.5715 159.8 33.2881C159.092 32.4832 157.775 32.4941 157.1 33.2881C156.142 34.4193 156.381 36.8339 156.49 37.5844C155.195 38.944 155.282 41.598 155.293 41.772C154.367 43.2078 154.465 45.0568 154.465 45.1547H154.476C153.507 46.7863 153.78 48.8094 153.823 49.0813C152.658 50.3974 152.582 51.9528 152.582 51.9963V53.4429C149.926 55.8358 149.632 59.3599 149.632 59.4361V75.4794H150.786V59.4796C150.808 59.1859 151.363 52.4205 158.896 52.4205C165.82 52.4205 166.418 59.1968 166.44 59.4469L166.495 75.4903H167.649L167.594 59.3926V59.3817ZM160.213 45.7965L159.789 47.3519C159.571 47.3192 159.332 47.3084 159.092 47.2975V45.5028H157.938V47.2975C157.742 47.3084 157.557 47.3301 157.372 47.3519L156.958 45.8291L155.848 46.1337L156.24 47.5912C155.685 47.7543 155.206 47.9827 154.803 48.2329C154.781 47.4498 154.879 46.1772 155.641 45.2853C156.251 44.5674 157.198 44.1976 158.45 44.1976C159.8 44.1976 160.79 44.5783 161.411 45.3288C162.118 46.1772 162.227 47.341 162.216 48.1132C161.824 47.8848 161.389 47.7108 160.91 47.5694L161.313 46.0793L160.202 45.7747L160.213 45.7965ZM158.45 41.1847C159.408 41.1847 160.148 41.4675 160.649 42.0222C161.16 42.5878 161.367 43.3492 161.454 43.9692C161.139 43.7516 160.779 43.5885 160.387 43.4579L160.638 42.5552L159.527 42.2506L159.266 43.2187C159.266 43.2187 159.157 43.2186 159.103 43.2078V41.772H157.949V43.1969C157.873 43.1969 157.786 43.1969 157.709 43.2187L157.437 42.218L156.327 42.5225L156.577 43.4688C156.218 43.5885 155.891 43.7407 155.598 43.9474C155.706 43.3057 155.946 42.5117 156.479 41.9461C156.969 41.4348 157.611 41.1847 158.45 41.1847ZM157.905 33.9733C158.188 33.6361 158.711 33.6361 159.016 33.9842C159.527 34.5607 159.636 35.9638 159.593 37.0406C159.429 36.9645 159.244 36.8992 159.048 36.8557V35.4852H158.003V36.8666C157.818 36.8883 157.633 36.9101 157.47 36.9645C157.372 35.9094 157.416 34.528 157.895 33.9733H157.905ZM157.252 38.3132C157.557 37.9869 157.938 37.8346 158.417 37.8346C159.865 37.8346 160.387 39.477 160.583 40.6626C160.137 40.4124 159.625 40.2493 159.059 40.184V38.8135H157.949V40.1731C157.361 40.2384 156.849 40.4015 156.392 40.6843C156.479 39.8795 156.708 38.8788 157.252 38.3132ZM153.638 52.0072C153.638 51.8549 153.823 48.3199 158.624 48.3199C160.3 48.3199 161.563 48.7441 162.391 49.5816C163.414 50.6149 163.403 51.9745 163.403 51.9963V52.3879C162.793 52.0289 162.108 51.7461 161.313 51.5503L161.726 50.0167L160.616 49.7121L160.181 51.3328C159.832 51.2893 159.473 51.2675 159.103 51.2675V49.4511H157.949V51.311C157.622 51.3328 157.307 51.3654 157.002 51.4198L156.545 49.7556L155.434 50.0602L155.87 51.6591C155.01 51.8984 154.28 52.2356 153.638 52.638V52.0072Z" fill="#7A6D64"/>
<path d="M159.112 24.313H158.208V31.5461H159.112V24.313Z" fill="#7A6D64"/>
<rect x="147.983" y="78.7896" width="1.25764" height="48.9084" fill="#7A6D64"/>
<rect x="156.926" y="78.7896" width="1.25764" height="48.9084" fill="#7A6D64"/>
<rect x="152.454" y="78.7896" width="1.25764" height="48.9084" fill="#7A6D64"/>
<rect x="161.398" y="78.7896" width="1.25764" height="48.9084" fill="#7A6D64"/>
<rect x="150.219" y="78.7896" width="1.25764" height="48.9084" fill="#7A6D64"/>
<rect x="159.162" y="78.7896" width="1.25764" height="48.9084" fill="#7A6D64"/>
<rect x="154.69" y="78.7896" width="1.25764" height="48.9084" fill="#7A6D64"/>
<rect x="163.633" y="78.7896" width="1.25764" height="48.9084" fill="#7A6D64"/>
<rect x="165.869" y="78.7896" width="1.25764" height="48.9084" fill="#7A6D64"/>
<rect x="168.105" y="78.7896" width="1.25764" height="48.9084" fill="#7A6D64"/>
<path d="M227.012 54.2319H225.858V63.3794H227.012V54.2319Z" fill="#796D64"/>
<path d="M229.722 91.061L229.232 82.6315H227.393L227.12 73.0598H225.77L225.455 82.6315H223.659L223.158 91.061H222.015L222.57 81.4785H224.344L224.649 71.9069H225.324L225.487 64.7281H227.349L227.534 71.9069H228.242L228.514 81.4785H230.31L230.865 91.061H229.722Z" fill="#796D64"/>
<path d="M225.912 83.6212H224.758V91.061H225.912V83.6212Z" fill="#796D64"/>
<path d="M228.155 83.6212H227.001V91.061H228.155V83.6212Z" fill="#796D64"/>
<path d="M231.943 91.9093H221.068V93.0079H231.943V91.9093Z" fill="#796D64"/>
<path d="M249.852 127.626H248.734V77.5315L249.852 76.6216V127.626Z" fill="#796D64"/>
<path d="M245.939 80.118L247.057 79.1368V127.486H245.939V80.118Z" fill="#796D64"/>
<path d="M243.144 82.3524L244.262 81.5125V127.626H243.144V82.3524Z" fill="#796D64"/>
<path d="M240.35 84.8677L241.468 84.0277V127.486H240.35V84.8677Z" fill="#796D64"/>
<path d="M237.555 87.2434L238.673 86.4033V127.486H237.555V87.2434Z" fill="#796D64"/>
<path d="M234.76 89.7587L235.878 88.9186V127.486H234.76V89.7587Z" fill="#796D64"/>
<path d="M234.76 89.4077L249.922 76.2024V77.3203L234.76 90.6653V89.4077Z" fill="#796D64"/>
<rect x="220.088" y="93.9491" width="1.11791" height="33.5372" fill="#7A6D64"/>
<rect x="222.463" y="93.9491" width="1.11791" height="33.5372" fill="#7A6D64"/>
<rect x="224.839" y="93.9491" width="1.11791" height="33.5372" fill="#7A6D64"/>
<rect x="227.214" y="93.9491" width="1.11791" height="33.5372" fill="#7A6D64"/>
<rect x="229.59" y="93.9491" width="1.11791" height="33.5372" fill="#7A6D64"/>
<rect x="231.965" y="93.9491" width="1.11791" height="33.5372" fill="#7A6D64"/>
<path fill-rule="evenodd" clip-rule="evenodd" d="M195.494 127.063V75.7789L201.153 76.518V60.6173L204.716 60.9666V48.8793L211.983 47.7614V61.805L213.31 62.0146V69.3836L218.481 67.9535V127.063H217.293V69.4906L209.747 71.5867V77.6403L214.219 78.2243V127.063H213.101V79.2024L196.681 77.1762V127.063H195.494ZM205.974 49.8575V50.6959H210.935V49.0889L205.974 49.8575ZM205.974 53.1413V51.8837H210.935V53.1413H205.974ZM205.974 54.399V55.7963H210.935V54.399H205.974ZM210.935 58.2418H205.974V56.9142H210.935V58.2418ZM205.974 60.8269H210.935V59.4295H205.974V60.8269ZM208.629 70.6785V77.4943L202.341 76.6731V62.0147L212.123 62.9929V69.7122L208.629 70.6785Z" fill="#7A6D64"/>
<rect x="214.219" y="124.128" width="3.07424" height="1.11791" fill="#7A6D64"/>
<rect x="214.219" y="109.875" width="3.07424" height="1.11791" fill="#7A6D64"/>
<rect x="214.219" y="95.6217" width="3.07424" height="1.11791" fill="#7A6D64"/>
<rect x="214.219" y="117.002" width="3.07424" height="1.11791" fill="#7A6D64"/>
<rect x="214.219" y="102.748" width="3.07424" height="1.11791" fill="#7A6D64"/>
<rect x="214.219" y="88.4951" width="3.07424" height="1.11791" fill="#7A6D64"/>
<rect x="214.219" y="121.753" width="3.07424" height="1.11791" fill="#7A6D64"/>
<rect x="214.219" y="107.5" width="3.07424" height="1.11791" fill="#7A6D64"/>
<rect x="214.219" y="93.2462" width="3.07424" height="1.11791" fill="#7A6D64"/>
<rect x="214.219" y="114.626" width="3.07424" height="1.11791" fill="#7A6D64"/>
<rect x="214.219" y="100.373" width="3.07424" height="1.11791" fill="#7A6D64"/>
<rect x="214.219" y="86.1195" width="3.07424" height="1.11791" fill="#7A6D64"/>
<rect x="214.219" y="81.3684" width="3.07424" height="1.11791" fill="#7A6D64"/>
<rect x="202.341" y="76.6173" width="14.952" height="1.11791" fill="#7A6D64"/>
<rect x="202.341" y="71.8662" width="14.952" height="1.11791" fill="#7A6D64"/>
<rect x="214.219" y="119.377" width="3.07424" height="1.11791" fill="#7A6D64"/>
<rect x="214.219" y="105.124" width="3.07424" height="1.11791" fill="#7A6D64"/>
<rect x="214.219" y="90.8706" width="3.07424" height="1.11791" fill="#7A6D64"/>
<rect x="214.219" y="112.251" width="3.07424" height="1.11791" fill="#7A6D64"/>
<rect x="214.219" y="97.9973" width="3.07424" height="1.11791" fill="#7A6D64"/>
<rect x="214.219" y="83.744" width="3.07424" height="1.11791" fill="#7A6D64"/>
<rect x="214.219" y="78.9929" width="3.07424" height="1.11791" fill="#7A6D64"/>
<rect x="202.341" y="74.2418" width="14.952" height="1.11791" fill="#7A6D64"/>
<rect x="202.341" y="69.0715" width="9.78167" height="1.11791" fill="#7A6D64"/>
<rect x="202.341" y="66.4165" width="9.78167" height="1.11791" fill="#7A6D64"/>
<rect x="202.341" y="63.7615" width="9.78167" height="1.11791" fill="#7A6D64"/>
<rect x="209.747" y="37.351" width="9.5022" height="0.978167" transform="rotate(90 209.747 37.351)" fill="#7A6D64"/>
<path d="M196.612 124.408H213.101V125.526H196.612V124.408Z" fill="#7A6D64"/>
<path d="M196.612 105.124H213.101V106.242H196.612V105.124Z" fill="#7A6D64"/>
<path d="M196.612 121.194H213.101V122.312H196.612V121.194Z" fill="#7A6D64"/>
<path d="M196.612 101.91H213.101V103.028H196.612V101.91Z" fill="#7A6D64"/>
<path d="M196.612 117.98H213.101V119.098H196.612V117.98Z" fill="#7A6D64"/>
<path d="M196.612 98.6959H213.101V99.8138H196.612V98.6959Z" fill="#7A6D64"/>
<path d="M196.612 114.766H213.101V115.884H196.612V114.766Z" fill="#7A6D64"/>
<path d="M196.612 95.4819H213.101V96.5998H196.612V95.4819Z" fill="#7A6D64"/>
<path d="M196.612 85.9797H213.101V87.0976H196.612V85.9797Z" fill="#7A6D64"/>
<path d="M196.612 111.552H213.101V112.67H196.612V111.552Z" fill="#7A6D64"/>
<path d="M196.612 92.2681H213.101V93.386H196.612V92.2681Z" fill="#7A6D64"/>
<path d="M196.612 82.7659H213.101V83.8838H196.612V82.7659Z" fill="#7A6D64"/>
<path d="M196.612 108.338H213.101V109.456H196.612V108.338Z" fill="#7A6D64"/>
<path d="M196.612 89.0541H213.101V90.172H196.612V89.0541Z" fill="#7A6D64"/>
<path d="M196.612 79.5519H213.101V80.6698H196.612V79.5519Z" fill="#7A6D64"/>
<path d="M173.205 127.342V54.9948C173.205 54.9948 172.402 54.0313 172.157 54.5547C172.114 54.6487 172.088 54.7907 172.088 54.9948V127.342H173.205Z" fill="#796D64"/>
<path d="M174.812 127.203H175.93V56.9841L174.812 56.2156V127.203Z" fill="#796D64"/>
<path d="M178.795 60.1283L177.677 58.4514V127.203H178.795V60.1283Z" fill="#796D64"/>
<path d="M181.59 61.5257L180.472 60.6873V127.342H181.59V61.5257Z" fill="#796D64"/>
<path d="M184.385 63.6218L183.267 62.7833V127.342H184.385V63.6218Z" fill="#796D64"/>
<path d="M187.179 65.7178L186.061 64.8794V127.203H187.179V65.7178Z" fill="#796D64"/>
<path d="M189.974 67.6741L188.856 66.8357V127.203H189.974V67.6741Z" fill="#796D64"/>
<path d="M192.839 69.91L191.721 69.0715V127.203H192.839V69.91Z" fill="#796D64"/>
<path d="M192.769 69.84L172.018 53.84V54.9579L192.769 71.0976V69.84Z" fill="#796D64"/>
<path d="M129.786 14.917H128.632V18.6151H129.786V14.917Z" fill="#7A6D64"/>
<path d="M131.778 14.917H130.624V18.6151H131.778V14.917Z" fill="#7A6D64"/>
<path d="M130.657 -0.0604248H129.754V13.4922H130.657V-0.0604248Z" fill="#7A6D64"/>
<rect x="115.564" y="67.4708" width="1.25764" height="60.2272" fill="#796D64"/>
<rect x="118.358" y="52.5188" width="1.25764" height="75.1792" fill="#796D64"/>
<rect x="118.358" y="52.5188" width="1.25764" height="75.1792" fill="#796D64"/>
<rect x="128.419" y="44.5537" width="1.25764" height="83.1442" fill="#796D64"/>
<rect x="120.874" y="52.5188" width="1.25764" height="75.1792" fill="#796D64"/>
<rect x="130.935" y="44.5537" width="1.25764" height="83.1442" fill="#796D64"/>
<rect x="138.481" y="52.5188" width="1.25764" height="75.1792" fill="#796D64"/>
<rect x="123.389" y="48.8856" width="1.25764" height="78.8123" fill="#796D64"/>
<rect x="133.45" y="44.5537" width="1.25764" height="83.1442" fill="#796D64"/>
<rect x="140.996" y="52.5188" width="1.25764" height="75.1792" fill="#796D64"/>
<rect x="125.904" y="44.5537" width="1.25764" height="83.1442" fill="#796D64"/>
<rect x="135.965" y="48.8856" width="1.25764" height="78.8123" fill="#796D64"/>
<rect x="143.511" y="67.4708" width="1.25764" height="60.2272" fill="#796D64"/>
<rect x="115.564" y="67.4708" width="29.2053" height="1.25764" fill="#7A6D64"/>
<rect x="116.402" y="52.5188" width="10.7598" height="1.25764" fill="#7A6D64"/>
<rect x="117.66" y="52.5188" width="14.952" height="1.25764" transform="rotate(90 117.66 52.5188)" fill="#7A6D64"/>
<rect x="119.895" y="43.855" width="8.66377" height="1.25764" transform="rotate(90 119.895 43.855)" fill="#7A6D64"/>
<rect x="121.852" y="50.1432" width="3.21398" height="1.25764" transform="rotate(-180 121.852 50.1432)" fill="#7A6D64"/>
<rect x="141.555" y="50.1432" width="3.21398" height="1.25764" transform="rotate(-180 141.555 50.1432)" fill="#7A6D64"/>
<rect x="141.555" y="45.1127" width="4.89084" height="1.25764" transform="rotate(-180 141.555 45.1127)" fill="#7A6D64"/>
<rect x="123.529" y="45.1127" width="4.89084" height="1.25764" transform="rotate(-180 123.529 45.1127)" fill="#7A6D64"/>
<rect x="140.018" y="42.4576" width="19.7031" height="1.25764" transform="rotate(-180 140.018 42.4576)" fill="#7A6D64"/>
<rect x="138.481" y="40.082" width="16.6288" height="1.25764" transform="rotate(-180 138.481 40.082)" fill="#7A6D64"/>
<rect x="136.664" y="37.427" width="13.1354" height="1.25764" transform="rotate(-180 136.664 37.427)" fill="#7A6D64"/>
<rect x="141.555" y="43.855" width="8.66377" height="1.25764" transform="rotate(90 141.555 43.855)" fill="#7A6D64"/>
<rect x="143.93" y="52.5188" width="14.952" height="1.25764" transform="rotate(90 143.93 52.5188)" fill="#7A6D64"/>
<rect x="133.45" y="52.5188" width="10.4804" height="1.25764" fill="#7A6D64"/>
<path d="M120.384 41.2699V43.8551H121.572V41.2699H120.384Z" fill="#7A6D64"/>
<path d="M121.852 38.8245V41.4096H123.04V38.8245H121.852Z" fill="#7A6D64"/>
<path d="M123.529 36.3091V38.8942H124.716V36.3091H123.529Z" fill="#7A6D64"/>
<path d="M138.9 41.2699V43.8551H140.088V41.2699H138.9Z" fill="#7A6D64"/>
<path d="M137.363 38.8245V41.4096H138.55V38.8245H137.363Z" fill="#7A6D64"/>
<path d="M135.546 36.3091V38.8942H136.734V36.3091H135.546Z" fill="#7A6D64"/>
<path d="M129.537 33.6541V36.2392H130.725V33.6541H129.537Z" fill="#7A6D64"/>
<path d="M127.86 31.0689L126.533 36.2392H127.86L129.118 31.3484L129.537 21.1475H130.865L131.354 31.3484L132.751 36.2392H133.939L132.542 31.0689L131.843 19.9597H128.419L127.86 31.0689Z" fill="#7A6D64"/>
</g>
</g>
<defs>
<linearGradient id="paint0_linear_84_2891" x1="258.034" y1="64.5412" x2="0" y2="64.5412" gradientUnits="userSpaceOnUse">
<stop stop-color="#7A6D64"/>
<stop offset="0.5" stop-color="#7A6D64"/>
<stop offset="1" stop-color="#E0C8B8"/>
</linearGradient>
<clipPath id="clip0_84_2891">
<rect width="258.103" height="181.85" fill="white"/>
</clipPath>
<clipPath id="clip1_84_2891">
<rect width="257.939" height="9.54989" fill="white" transform="translate(0.0435791 172.583)"/>
</clipPath>
<clipPath id="clip2_84_2891">
<rect width="258.103" height="20.4485" fill="white" transform="translate(0 140.705)"/>
</clipPath>
</defs>
</svg>
