<svg width="200" height="16" viewBox="0 0 200 16" fill="none" xmlns="http://www.w3.org/2000/svg">
<g clip-path="url(#clip0_136_20811)">
<path d="M0 0.834961H2.67409V13.7219H10.7301V16.1492H0V0.834961Z" fill="#0C0C0C"/>
<path d="M24.8931 3.27076H16.2213V7.20679H23.9062V9.63413H16.2213V13.7219H25.0028V16.1492H13.5557V0.834961H24.8931V3.26232V3.27076Z" fill="#0C0C0C"/>
<path d="M46.8848 14.431C46.4546 14.7597 45.9906 15.0463 45.4929 15.2823C44.9952 15.5267 44.4553 15.7037 43.8649 15.8301C43.2744 15.9565 42.6248 16.0155 41.9078 16.0155C40.7859 16.0155 39.7483 15.8132 38.795 15.4003C37.8418 14.9873 37.0236 14.431 36.3318 13.723C35.6401 13.015 35.0918 12.1806 34.7038 11.2198C34.3073 10.259 34.1133 9.2223 34.1133 8.11819C34.1133 7.01408 34.3073 5.99425 34.6953 5.03342C35.0834 4.07259 35.6233 3.22976 36.3234 2.50492C37.0236 1.78009 37.8587 1.21539 38.8204 0.802399C39.782 0.389411 40.8449 0.178711 42.0175 0.178711C42.7176 0.178711 43.3587 0.237702 43.9323 0.355699C44.506 0.473695 45.0374 0.633835 45.5182 0.844543C45.9991 1.05525 46.4462 1.30811 46.8511 1.6031C47.256 1.89809 47.644 2.21837 48.0152 2.56393L46.2859 4.55301C45.6701 3.98832 45.0205 3.52475 44.3372 3.17919C43.654 2.8252 42.8694 2.65664 41.9921 2.65664C41.2667 2.65664 40.5918 2.79992 39.9676 3.08648C39.3434 3.37304 38.8119 3.75232 38.3564 4.24959C37.9009 4.73844 37.555 5.31156 37.3019 5.96897C37.0573 6.62637 36.9308 7.33436 36.9308 8.09291C36.9308 8.85146 37.0573 9.55943 37.3019 10.2253C37.5466 10.8911 37.9009 11.4642 38.3564 11.9615C38.8119 12.4588 39.3434 12.8465 39.9676 13.133C40.5834 13.4196 41.2582 13.5629 41.9921 13.5629C42.9285 13.5629 43.7299 13.3859 44.4047 13.0235C45.0796 12.6695 45.7376 12.1806 46.3955 11.5738L48.1248 13.3269C47.7284 13.7483 47.315 14.1276 46.8848 14.4563V14.431Z" fill="#0C0C0C"/>
<path d="M65.2666 11.1355C64.8702 12.0964 64.3134 12.9392 63.6048 13.664C62.8962 14.3889 62.0442 14.962 61.0657 15.3834C60.0872 15.8048 59.0074 16.0155 57.8264 16.0155C56.6454 16.0155 55.5657 15.8048 54.5871 15.3918C53.6086 14.9789 52.7735 14.4141 52.0733 13.6977C51.3732 12.9813 50.8249 12.1469 50.4284 11.1777C50.0319 10.2084 49.8379 9.19702 49.8379 8.11819C49.8379 7.03936 50.0319 6.01953 50.4284 5.0587C50.8249 4.09788 51.3816 3.25504 52.0902 2.53021C52.7988 1.80537 53.6508 1.23225 54.6293 0.810835C55.6079 0.389419 56.6876 0.178711 57.8686 0.178711C59.0496 0.178711 60.1293 0.389424 61.1079 0.802412C62.0864 1.2154 62.9215 1.78009 63.6301 2.4965C64.3387 3.21291 64.8786 4.04732 65.2751 5.01657C65.6715 5.9774 65.8656 6.99722 65.8656 8.07605C65.8656 9.15487 65.6715 10.1747 65.2751 11.1355H65.2666ZM62.6516 6.00269C62.3985 5.33685 62.0358 4.76372 61.5803 4.26645C61.1247 3.76918 60.568 3.37304 59.9269 3.08648C59.2858 2.79149 58.5856 2.64822 57.8264 2.64822C57.0672 2.64822 56.3755 2.79149 55.7344 3.07806C55.1017 3.36462 54.5534 3.7439 54.1063 4.24117C53.6508 4.73001 53.2965 5.30313 53.0434 5.96897C52.7904 6.6348 52.6638 7.33435 52.6638 8.07605C52.6638 8.81774 52.7904 9.52573 53.0434 10.1916C53.2965 10.8574 53.6592 11.4305 54.1147 11.9278C54.5703 12.4251 55.127 12.8212 55.7681 13.1078C56.4092 13.4027 57.1094 13.546 57.8686 13.546C58.6278 13.546 59.3195 13.4028 59.9606 13.1162C60.5933 12.8296 61.1416 12.4504 61.5887 11.9531C62.0442 11.4642 62.3985 10.8911 62.6516 10.2253C62.9047 9.55943 63.0312 8.85988 63.0312 8.11819C63.0312 7.3765 62.9047 6.66852 62.6516 6.00269Z" fill="#0C0C0C"/>
<path d="M71.4155 5.34078C71.5167 5.55991 71.7023 5.76219 71.9722 5.95604C72.2421 6.14146 72.6133 6.31845 73.0941 6.47859C73.5665 6.63873 74.1739 6.8073 74.9078 6.9843C75.7092 7.18658 76.4262 7.41414 77.0504 7.65857C77.6747 7.90299 78.1892 8.20641 78.5942 8.56883C79.0075 8.92282 79.3112 9.34423 79.5305 9.81621C79.7414 10.2882 79.8511 10.8445 79.8511 11.4934C79.8511 12.2267 79.7161 12.8757 79.4462 13.4404C79.1762 14.0051 78.805 14.4939 78.3242 14.8816C77.8434 15.2778 77.2698 15.5728 76.6033 15.7835C75.9369 15.9858 75.1946 16.0869 74.3932 16.0869C73.2122 16.0869 72.0819 15.8846 71.0021 15.4885C69.9223 15.0839 68.9185 14.4686 67.999 13.6427L69.6187 11.721C70.361 12.3616 71.1118 12.8588 71.871 13.196C72.6302 13.5331 73.4906 13.7101 74.4523 13.7101C75.2874 13.7101 75.9454 13.5331 76.4346 13.1875C76.9239 12.842 77.1685 12.3616 77.1685 11.7632C77.1685 11.485 77.1179 11.2406 77.0251 11.0215C76.9323 10.8023 76.7552 10.6 76.4937 10.4231C76.2406 10.2376 75.8863 10.0691 75.4392 9.90893C74.9921 9.74879 74.4101 9.58022 73.6931 9.40322C72.8748 9.2178 72.1493 8.99866 71.5082 8.7711C70.8756 8.5351 70.3357 8.24855 69.9055 7.89456C69.4753 7.549 69.1463 7.11914 68.9185 6.62187C68.6907 6.1246 68.5811 5.51777 68.5811 4.80979C68.5811 4.14395 68.7076 3.52868 68.9691 2.98084C69.2306 2.433 69.5849 1.96102 70.0404 1.57331C70.496 1.17718 71.0443 0.873762 71.6854 0.663054C72.3265 0.452346 73.0267 0.342773 73.7859 0.342773C74.9078 0.342773 75.9201 0.511341 76.8142 0.831618C77.7169 1.16032 78.552 1.64073 79.3449 2.26443L77.9024 4.29566C77.2023 3.78153 76.5106 3.39383 75.8273 3.12412C75.144 2.85442 74.4438 2.71957 73.7437 2.71957C72.9592 2.71957 72.3434 2.89656 71.9047 3.25898C71.4661 3.61297 71.2467 4.05124 71.2467 4.55694C71.2467 4.86036 71.2973 5.12164 71.3986 5.34078H71.4155Z" fill="#0C0C0C"/>
<path d="M90.5733 12.3818H90.489L85.6975 5.20926V16.1492H83.0234V0.834961H85.8915L90.5564 8.07489L95.2213 0.834961H98.0894V16.1492H95.4154V5.16712L90.5733 12.3902V12.3818Z" fill="#0C0C0C"/>
<path d="M116.782 11.1355C116.386 12.0964 115.829 12.9392 115.12 13.664C114.412 14.3889 113.56 14.962 112.581 15.3834C111.603 15.8048 110.523 16.0155 109.342 16.0155C108.161 16.0155 107.081 15.8048 106.103 15.3918C105.124 14.9789 104.289 14.4141 103.589 13.6977C102.889 12.9813 102.34 12.1469 101.944 11.1777C101.548 10.2084 101.354 9.19702 101.354 8.11819C101.354 7.03936 101.548 6.01953 101.944 5.0587C102.34 4.09788 102.897 3.25504 103.606 2.53021C104.314 1.80537 105.166 1.23225 106.145 0.810835C107.123 0.389419 108.203 0.178711 109.384 0.178711C110.565 0.178711 111.645 0.389424 112.623 0.802412C113.602 1.2154 114.437 1.78009 115.146 2.4965C115.854 3.21291 116.394 4.04732 116.791 5.01657C117.187 5.9774 117.381 6.99722 117.381 8.07605C117.381 9.15487 117.187 10.1747 116.791 11.1355H116.782ZM114.167 6.00269C113.914 5.33685 113.551 4.76372 113.096 4.26645C112.64 3.76918 112.084 3.37304 111.443 3.08648C110.801 2.79149 110.101 2.64822 109.342 2.64822C108.583 2.64822 107.891 2.79149 107.25 3.07806C106.617 3.36462 106.069 3.7439 105.622 4.24117C105.166 4.73001 104.812 5.30313 104.559 5.96897C104.306 6.6348 104.179 7.33435 104.179 8.07605C104.179 8.81774 104.306 9.52573 104.559 10.1916C104.812 10.8574 105.175 11.4305 105.63 11.9278C106.086 12.4251 106.643 12.8212 107.284 13.1078C107.925 13.4027 108.625 13.546 109.384 13.546C110.143 13.546 110.835 13.4028 111.476 13.1162C112.109 12.8296 112.657 12.4504 113.104 11.9531C113.56 11.4642 113.914 10.8911 114.167 10.2253C114.42 9.55943 114.547 8.85988 114.547 8.11819C114.547 7.3765 114.42 6.66852 114.167 6.00269Z" fill="#0C0C0C"/>
<path d="M132.018 8.25189C131.697 8.9093 131.258 9.45714 130.702 9.89541C130.145 10.3337 129.495 10.6624 128.745 10.8899C127.994 11.1175 127.201 11.2271 126.349 11.2271H123.295V16.1492H120.621V0.834961H126.661C127.555 0.834961 128.357 0.952951 129.082 1.19737C129.807 1.43337 130.415 1.78736 130.921 2.23407C131.427 2.6892 131.815 3.22861 132.085 3.8523C132.355 4.476 132.49 5.18397 132.49 5.97623C132.49 6.83592 132.33 7.59448 132.009 8.25189H132.018ZM128.863 3.96186C128.264 3.4983 127.454 3.27075 126.442 3.27075H123.304V8.80815H126.442C127.462 8.80815 128.281 8.5553 128.871 8.0496C129.462 7.5439 129.765 6.87806 129.765 6.04366C129.765 5.12497 129.462 4.43386 128.863 3.9703V3.96186Z" fill="#0C0C0C"/>
<path d="M150.019 11.1355C149.622 12.0964 149.065 12.9392 148.357 13.664C147.648 14.3889 146.796 14.962 145.818 15.3834C144.839 15.8048 143.759 16.0155 142.578 16.0155C141.397 16.0155 140.318 15.8048 139.339 15.3918C138.361 14.9789 137.525 14.4141 136.825 13.6977C136.125 12.9813 135.577 12.1469 135.18 11.1777C134.784 10.2084 134.59 9.19702 134.59 8.11819C134.59 7.03936 134.784 6.01953 135.18 5.0587C135.577 4.09788 136.134 3.25504 136.842 2.53021C137.551 1.80537 138.403 1.23225 139.381 0.810835C140.36 0.389419 141.44 0.178711 142.621 0.178711C143.802 0.178711 144.881 0.389424 145.86 0.802412C146.838 1.2154 147.673 1.78009 148.382 2.4965C149.091 3.21291 149.631 4.04732 150.027 5.01657C150.423 5.9774 150.618 6.99722 150.618 8.07605C150.618 9.15487 150.423 10.1747 150.027 11.1355H150.019ZM147.395 6.00269C147.142 5.33685 146.779 4.76372 146.324 4.26645C145.868 3.76918 145.312 3.37304 144.67 3.08648C144.029 2.79149 143.329 2.64822 142.57 2.64822C141.811 2.64822 141.119 2.79149 140.478 3.07806C139.845 3.36462 139.297 3.7439 138.85 4.24117C138.394 4.73001 138.04 5.30313 137.787 5.96897C137.534 6.6348 137.407 7.33435 137.407 8.07605C137.407 8.81774 137.534 9.52573 137.787 10.1916C138.04 10.8574 138.403 11.4305 138.858 11.9278C139.314 12.4251 139.871 12.8212 140.512 13.1078C141.153 13.4027 141.853 13.546 142.612 13.546C143.371 13.546 144.063 13.4028 144.704 13.1162C145.337 12.8296 145.885 12.4504 146.332 11.9531C146.788 11.4642 147.142 10.8911 147.395 10.2253C147.648 9.55943 147.775 8.85988 147.775 8.11819C147.775 7.3765 147.648 6.66852 147.395 6.00269Z" fill="#0C0C0C"/>
<path d="M153.865 0.834961H156.539V13.7219H164.595V16.1492H153.865V0.834961Z" fill="#0C0C0C"/>
<path d="M170.247 0.834961V16.1492H167.573V0.834961H170.247Z" fill="#0C0C0C"/>
<path d="M180.843 16.1492H178.127V3.32974H173.268V0.834961H185.702V3.32974H180.843V16.1492Z" fill="#0C0C0C"/>
<path d="M199.89 3.27076H191.218V7.20679H198.903V9.63413H191.218V13.7219H200V16.1492H188.553V0.834961H199.89V3.26232V3.27076Z" fill="#0C0C0C"/>
</g>
<defs>
<clipPath id="clip0_136_20811">
<rect width="200" height="15.8452" fill="white" transform="translate(0 0.0771484)"/>
</clipPath>
</defs>
</svg>
