<svg width="200" height="16" viewBox="0 0 200 16" fill="none" xmlns="http://www.w3.org/2000/svg">
<g clip-path="url(#clip0_298_4093)">
<path d="M0 0.835205H2.67409V13.7221H10.7301V16.1495H0V0.835205Z" fill="#FAF5E9"/>
<path d="M24.8936 3.271H16.2218V7.20703H23.9067V9.63438H16.2218V13.7221H25.0033V16.1495H13.5562V0.835205H24.8936V3.26257V3.271Z" fill="#FAF5E9"/>
<path d="M46.8853 14.4312C46.4551 14.7599 45.9911 15.0465 45.4934 15.2825C44.9957 15.5269 44.4558 15.7039 43.8653 15.8303C43.2748 15.9568 42.6253 16.0158 41.9083 16.0158C40.7863 16.0158 39.7488 15.8135 38.7955 15.4005C37.8423 14.9875 37.0241 14.4312 36.3323 13.7233C35.6406 13.0153 35.0923 12.1809 34.7043 11.2201C34.3078 10.2592 34.1138 9.22254 34.1138 8.11843C34.1138 7.01432 34.3078 5.99449 34.6958 5.03367C35.0839 4.07284 35.6237 3.23 36.3239 2.50517C37.0241 1.78033 37.8592 1.21563 38.8208 0.802643C39.7825 0.389655 40.8454 0.178955 42.0179 0.178955C42.7181 0.178955 43.3592 0.237946 43.9328 0.355943C44.5064 0.473939 45.0379 0.634079 45.5187 0.844787C45.9995 1.0555 46.4466 1.30835 46.8515 1.60334C47.2565 1.89834 47.6445 2.21861 48.0157 2.56417L46.2864 4.55326C45.6706 3.98856 45.021 3.525 44.3377 3.17944C43.6545 2.82545 42.8699 2.65688 41.9926 2.65688C41.2672 2.65688 40.5923 2.80016 39.9681 3.08672C39.3439 3.37329 38.8124 3.75257 38.3569 4.24984C37.9014 4.73868 37.5555 5.3118 37.3024 5.96921C37.0578 6.62662 36.9313 7.3346 36.9313 8.09315C36.9313 8.8517 37.0578 9.55968 37.3024 10.2255C37.5471 10.8914 37.9014 11.4645 38.3569 11.9617C38.8124 12.459 39.3439 12.8467 39.9681 13.1333C40.5839 13.4198 41.2587 13.5631 41.9926 13.5631C42.929 13.5631 43.7304 13.3861 44.4052 13.0237C45.0801 12.6697 45.738 12.1809 46.396 11.574L48.1253 13.3271C47.7289 13.7485 47.3155 14.1278 46.8853 14.4565V14.4312Z" fill="#FAF5E9"/>
<path d="M65.2661 11.1358C64.8697 12.0966 64.3129 12.9394 63.6043 13.6643C62.8957 14.3891 62.0437 14.9622 61.0652 15.3836C60.0867 15.8051 59.0069 16.0158 57.8259 16.0158C56.6449 16.0158 55.5652 15.8051 54.5867 15.3921C53.6081 14.9791 52.773 14.4144 52.0728 13.698C51.3727 12.9816 50.8244 12.1472 50.4279 11.1779C50.0314 10.2087 49.8374 9.19726 49.8374 8.11843C49.8374 7.03961 50.0314 6.01978 50.4279 5.05895C50.8244 4.09812 51.3811 3.25529 52.0897 2.53045C52.7983 1.80562 53.6503 1.2325 54.6288 0.811079C55.6074 0.389663 56.6871 0.178955 57.8681 0.178955C59.0491 0.178955 60.1289 0.389668 61.1074 0.802656C62.0859 1.21564 62.921 1.78034 63.6296 2.49674C64.3382 3.21315 64.8781 4.04756 65.2746 5.01682C65.6711 5.97765 65.8651 6.99747 65.8651 8.07629C65.8651 9.15512 65.6711 10.1749 65.2746 11.1358H65.2661ZM62.6511 6.00293C62.398 5.33709 62.0353 4.76397 61.5798 4.2667C61.1243 3.76943 60.5675 3.37329 59.9264 3.08672C59.2853 2.79173 58.5851 2.64846 57.8259 2.64846C57.0667 2.64846 56.375 2.79174 55.7339 3.0783C55.1012 3.36486 54.5529 3.74414 54.1058 4.24141C53.6503 4.73026 53.296 5.30337 53.0429 5.96921C52.7899 6.63505 52.6633 7.3346 52.6633 8.07629C52.6633 8.81798 52.7899 9.52597 53.0429 10.1918C53.296 10.8576 53.6587 11.4308 54.1143 11.928C54.5698 12.4253 55.1265 12.8214 55.7676 13.108C56.4087 13.403 57.1089 13.5463 57.8681 13.5463C58.6273 13.5463 59.319 13.403 59.9601 13.1164C60.5928 12.8299 61.1411 12.4506 61.5882 11.9533C62.0437 11.4645 62.398 10.8914 62.6511 10.2255C62.9042 9.55968 63.0307 8.86013 63.0307 8.11843C63.0307 7.37674 62.9042 6.66877 62.6511 6.00293Z" fill="#FAF5E9"/>
<path d="M71.4159 5.34102C71.5172 5.56016 71.7027 5.76243 71.9727 5.95628C72.2426 6.14171 72.6138 6.3187 73.0946 6.47884C73.567 6.63898 74.1744 6.80755 74.9083 6.98454C75.7097 7.18682 76.4267 7.41439 77.0509 7.65881C77.6752 7.90323 78.1897 8.20665 78.5946 8.56907C79.008 8.92306 79.3117 9.34447 79.531 9.81646C79.7419 10.2884 79.8516 10.8447 79.8516 11.4937C79.8516 12.227 79.7166 12.8759 79.4466 13.4406C79.1767 14.0053 78.8055 14.4942 78.3247 14.8819C77.8439 15.278 77.2703 15.573 76.6038 15.7837C75.9374 15.986 75.1951 16.0871 74.3937 16.0871C73.2127 16.0871 72.0823 15.8848 71.0026 15.4887C69.9228 15.0842 68.919 14.4689 67.9995 13.6429L69.6191 11.7213C70.3615 12.3618 71.1123 12.8591 71.8715 13.1962C72.6307 13.5333 73.4911 13.7103 74.4528 13.7103C75.2879 13.7103 75.9459 13.5333 76.4351 13.1878C76.9244 12.8422 77.169 12.3618 77.169 11.7634C77.169 11.4853 77.1184 11.2408 77.0256 11.0217C76.9328 10.8026 76.7557 10.6003 76.4942 10.4233C76.2411 10.2379 75.8868 10.0693 75.4397 9.90917C74.9926 9.74903 74.4106 9.58046 73.6936 9.40347C72.8753 9.21804 72.1498 8.99891 71.5087 8.77134C70.8761 8.53535 70.3362 8.24879 69.906 7.8948C69.4757 7.54924 69.1468 7.11939 68.919 6.62212C68.6912 6.12485 68.5816 5.51801 68.5816 4.81003C68.5816 4.14419 68.7081 3.52893 68.9696 2.98109C69.2311 2.43325 69.5854 1.96126 70.0409 1.57356C70.4965 1.17743 71.0448 0.874006 71.6859 0.663298C72.327 0.45259 73.0271 0.343018 73.7863 0.343018C74.9083 0.343018 75.9206 0.511586 76.8147 0.831862C77.7173 1.16057 78.5525 1.64098 79.3454 2.26467L77.9029 4.2959C77.2028 3.78178 76.511 3.39407 75.8278 3.12437C75.1445 2.85466 74.4443 2.71981 73.7442 2.71981C72.9597 2.71981 72.3439 2.89681 71.9052 3.25922C71.4665 3.61321 71.2472 4.05148 71.2472 4.55718C71.2472 4.8606 71.2978 5.12188 71.3991 5.34102H71.4159Z" fill="#FAF5E9"/>
<path d="M90.5733 12.382H90.489L85.6975 5.20951V16.1495H83.0234V0.835205H85.8915L90.5564 8.07513L95.2213 0.835205H98.0894V16.1495H95.4154V5.16736L90.5733 12.3904V12.382Z" fill="#FAF5E9"/>
<path d="M116.783 11.1358C116.386 12.0966 115.83 12.9394 115.121 13.6643C114.412 14.3891 113.56 14.9622 112.582 15.3836C111.603 15.8051 110.524 16.0158 109.343 16.0158C108.162 16.0158 107.082 15.8051 106.103 15.3921C105.125 14.9791 104.29 14.4144 103.589 13.698C102.889 12.9816 102.341 12.1472 101.944 11.1779C101.548 10.2087 101.354 9.19726 101.354 8.11843C101.354 7.03961 101.548 6.01978 101.944 5.05895C102.341 4.09812 102.898 3.25529 103.606 2.53045C104.315 1.80562 105.167 1.2325 106.145 0.811079C107.124 0.389663 108.204 0.178955 109.385 0.178955C110.566 0.178955 111.645 0.389668 112.624 0.802656C113.603 1.21564 114.438 1.78034 115.146 2.49674C115.855 3.21315 116.395 4.04756 116.791 5.01682C117.188 5.97765 117.382 6.99747 117.382 8.07629C117.382 9.15512 117.188 10.1749 116.791 11.1358H116.783ZM114.168 6.00293C113.915 5.33709 113.552 4.76397 113.096 4.2667C112.641 3.76943 112.084 3.37329 111.443 3.08672C110.802 2.79173 110.102 2.64846 109.343 2.64846C108.583 2.64846 107.892 2.79174 107.25 3.0783C106.618 3.36486 106.07 3.74414 105.622 4.24141C105.167 4.73026 104.813 5.30337 104.56 5.96921C104.306 6.63505 104.18 7.3346 104.18 8.07629C104.18 8.81798 104.306 9.52597 104.56 10.1918C104.813 10.8576 105.175 11.4308 105.631 11.928C106.086 12.4253 106.643 12.8214 107.284 13.108C107.925 13.403 108.626 13.5463 109.385 13.5463C110.144 13.5463 110.836 13.403 111.477 13.1164C112.109 12.8299 112.658 12.4506 113.105 11.9533C113.56 11.4645 113.915 10.8914 114.168 10.2255C114.421 9.55968 114.547 8.86013 114.547 8.11843C114.547 7.37674 114.421 6.66877 114.168 6.00293Z" fill="#FAF5E9"/>
<path d="M132.018 8.25213C131.697 8.90954 131.258 9.45738 130.702 9.89565C130.145 10.3339 129.495 10.6626 128.745 10.8902C127.994 11.1178 127.201 11.2273 126.349 11.2273H123.295V16.1495H120.621V0.835205H126.661C127.555 0.835205 128.357 0.953195 129.082 1.19762C129.807 1.43361 130.415 1.78761 130.921 2.23431C131.427 2.68944 131.815 3.22885 132.085 3.85255C132.355 4.47624 132.49 5.18421 132.49 5.97647C132.49 6.83616 132.33 7.59472 132.009 8.25213H132.018ZM128.863 3.96211C128.264 3.49855 127.454 3.27099 126.442 3.27099H123.304V8.80839H126.442C127.462 8.80839 128.281 8.55555 128.871 8.04985C129.462 7.54415 129.765 6.87831 129.765 6.0439C129.765 5.12522 129.462 4.4341 128.863 3.97054V3.96211Z" fill="#FAF5E9"/>
<path d="M150.019 11.1358C149.623 12.0966 149.066 12.9394 148.357 13.6643C147.649 14.3891 146.797 14.9622 145.818 15.3836C144.84 15.8051 143.76 16.0158 142.579 16.0158C141.398 16.0158 140.318 15.8051 139.34 15.3921C138.361 14.9791 137.526 14.4144 136.826 13.698C136.126 12.9816 135.577 12.1472 135.181 11.1779C134.784 10.2087 134.59 9.19726 134.59 8.11843C134.59 7.03961 134.784 6.01978 135.181 5.05895C135.577 4.09812 136.134 3.25529 136.843 2.53045C137.551 1.80562 138.403 1.2325 139.382 0.811079C140.36 0.389663 141.44 0.178955 142.621 0.178955C143.802 0.178955 144.882 0.389668 145.86 0.802656C146.839 1.21564 147.674 1.78034 148.383 2.49674C149.091 3.21315 149.631 4.04756 150.028 5.01682C150.424 5.97765 150.618 6.99747 150.618 8.07629C150.618 9.15512 150.424 10.1749 150.028 11.1358H150.019ZM147.396 6.00293C147.143 5.33709 146.78 4.76397 146.324 4.2667C145.869 3.76943 145.312 3.37329 144.671 3.08672C144.03 2.79173 143.33 2.64846 142.57 2.64846C141.811 2.64846 141.119 2.79174 140.478 3.0783C139.846 3.36486 139.297 3.74414 138.85 4.24141C138.395 4.73026 138.04 5.30337 137.787 5.96921C137.534 6.63505 137.408 7.3346 137.408 8.07629C137.408 8.81798 137.534 9.52597 137.787 10.1918C138.04 10.8576 138.403 11.4308 138.859 11.928C139.314 12.4253 139.871 12.8214 140.512 13.108C141.153 13.403 141.853 13.5463 142.613 13.5463C143.372 13.5463 144.064 13.403 144.705 13.1164C145.337 12.8299 145.886 12.4506 146.333 11.9533C146.788 11.4645 147.143 10.8914 147.396 10.2255C147.649 9.55968 147.775 8.86013 147.775 8.11843C147.775 7.37674 147.649 6.66877 147.396 6.00293Z" fill="#FAF5E9"/>
<path d="M153.866 0.835205H156.54V13.7221H164.596V16.1495H153.866V0.835205Z" fill="#FAF5E9"/>
<path d="M170.247 0.835205V16.1495H167.573V0.835205H170.247Z" fill="#FAF5E9"/>
<path d="M180.843 16.1495H178.127V3.32998H173.268V0.835205H185.702V3.32998H180.843V16.1495Z" fill="#FAF5E9"/>
<path d="M199.89 3.271H191.218V7.20703H198.903V9.63438H191.218V13.7221H200V16.1495H188.553V0.835205H199.89V3.26257V3.271Z" fill="#FAF5E9"/>
</g>
<defs>
<clipPath id="clip0_298_4093">
<rect width="200" height="15.8452" fill="white" transform="translate(0 0.0773926)"/>
</clipPath>
</defs>
</svg>
